<?xml version="1.0" standalone="no"?><!DOCTYPE svg PUBLIC "-//W3C//DTD SVG 1.1//EN" "http://www.w3.org/Graphics/SVG/1.1/DTD/svg11.dtd"><svg class="icon" width="200px" height="200.00px" viewBox="0 0 1024 1024" version="1.1" xmlns="http://www.w3.org/2000/svg"><path d="M503.808 516.096m-483.328 0a483.328 483.328 0 1 0 966.656 0 483.328 483.328 0 1 0-966.656 0Z" fill="#FFFFFF" /><path d="M503.808 1021.952C225.28 1021.952 0 794.624 0 516.096 0 239.616 225.28 12.288 503.808 12.288c278.528 0 503.808 225.28 503.808 503.808 2.048 278.528-225.28 505.856-503.808 505.856z m0-968.704C249.856 53.248 40.96 262.144 40.96 516.096c0 256 208.896 462.848 462.848 462.848s462.848-208.896 462.848-462.848c2.048-253.952-206.848-462.848-462.848-462.848z"  /><path d="M628.736 174.08c-8.192 12.288-55.296 32.768-96.256 43.008-51.2 10.24-75.776 18.432-102.4 32.768-34.816 20.48-53.248 47.104-51.2 71.68 2.048 6.144 43.008 67.584 92.16 137.216 51.2 69.632 92.16 129.024 94.208 131.072 2.048 4.096-6.144 4.096-28.672 2.048-75.776-6.144-145.408 34.816-178.176 98.304-8.192 18.432-10.24 30.72-10.24 53.248 0 53.248 28.672 94.208 79.872 118.784 20.48 8.192 55.296 10.24 71.68 10.24 6.144 0 49.152 0 79.872-16.384 83.968-40.96 118.784-118.784 83.968-190.464-6.144-16.384-51.2-90.112-98.304-167.936l-86.016-141.312h14.336c55.296-4.096 94.208-20.48 120.832-51.2 22.528-26.624 28.672-53.248 28.672-94.208-2.048-40.96-6.144-49.152-14.336-36.864z"  /></svg>